<?xml version="1.0" standalone="no"?>
<!DOCTYPE svg PUBLIC "-//W3C//DTD SVG 20010904//EN"
 "http://www.w3.org/TR/2001/REC-SVG-20010904/DTD/svg10.dtd">
<svg version="1.0" xmlns="http://www.w3.org/2000/svg"
 width="2125.000000pt" height="2125.000000pt" viewBox="0 0 2125.000000 2125.000000"
 preserveAspectRatio="xMidYMid meet">

<g transform="translate(0.000000,2125.000000) scale(0.100000,-0.100000)"
fill="#000000" stroke="none">
<path d="M12760 11820 l0 -3090 920 0 920 0 0 3090 0 3090 -920 0 -920 0 0
-3090z"/>
<path d="M5200 13175 l-205 -205 208 -207 207 -208 205 205 205 205 205 -205
205 -205 208 208 207 207 -207 207 -208 208 -205 -205 -205 -205 -203 203
c-111 111 -204 202 -207 202 -3 0 -97 -92 -210 -205z"/>
<path d="M8830 12305 c-641 -95 -1216 -181 -1277 -190 l-113 -17 0 -1509 0
-1509 461 0 460 0 -3 -40 -3 -41 -287 0 -288 0 0 -500 0 -501 43 6 c23 3 357
40 742 81 573 63 703 80 716 93 9 9 177 214 373 456 l356 438 0 1704 c0 937
-3 1704 -7 1703 -5 0 -532 -79 -1173 -174z m-470 -1070 l0 -415 -45 0 -45 0 0
415 0 415 45 0 45 0 0 -415z"/>
<path d="M12305 12425 c-192 -29 -750 -112 -1240 -184 -489 -73 -905 -134
-922 -137 l-33 -6 0 -1509 0 -1509 455 0 455 0 0 -40 0 -40 -198 0 c-110 0
-240 -3 -290 -6 l-92 -7 0 -495 0 -495 43 6 c23 3 359 40 747 82 388 43 705
78 706 79 0 0 168 207 372 458 l372 457 0 1701 c0 1354 -3 1700 -12 1699 -7
-1 -170 -25 -363 -54z m-1285 -1190 l0 -415 -40 0 -40 0 0 415 0 415 40 0 40
0 0 -415z"/>
<path d="M6070 11855 c-679 -112 -1249 -206 -1267 -210 l-33 -6 0 -1279 0
-1280 460 0 460 0 0 -42 0 -43 -492 2 -493 3 -3 575 c-1 410 -5 575 -13 575
-13 0 -775 -149 -801 -156 -17 -5 -18 -52 -18 -794 l0 -789 495 -414 c421
-351 500 -413 523 -410 15 2 394 37 842 78 448 42 829 78 847 81 27 4 78 62
402 460 l371 455 0 1699 0 1700 -22 -1 c-13 -1 -579 -93 -1258 -204z m-380
-970 l0 -235 -45 0 -45 0 0 235 0 235 45 0 45 0 0 -235z"/>
<path d="M14710 9020 l0 -2810 840 0 840 0 0 2810 0 2810 -840 0 -840 0 0
-2810z"/>
</g>
</svg>
